<mxfile host="app.diagrams.net" modified="2023-05-12T09:21:30.657Z" agent="Mozilla/5.0 (Windows NT 10.0; Win64; x64) AppleWebKit/537.36 (KHTML, like Gecko) Chrome/113.0.0.0 Safari/537.36 Edg/113.0.1774.35" etag="UPWeVsJ_PQLSXXVk780g" version="21.2.9" type="github">
  <diagram name="Page-1" id="929967ad-93f9-6ef4-fab6-5d389245f69c">
    <mxGraphModel dx="1341" dy="565" grid="0" gridSize="10" guides="1" tooltips="1" connect="1" arrows="1" fold="1" page="1" pageScale="1.5" pageWidth="1169" pageHeight="826" background="none" math="0" shadow="0">
      <root>
        <mxCell id="0" style=";html=1;" />
        <mxCell id="1" style=";html=1;" parent="0" />
        <mxCell id="1672d66443f91eb5-1" value="&lt;p style=&quot;margin: 0px ; margin-top: 4px ; margin-left: 10px ; text-align: left&quot;&gt;&lt;b&gt;req&lt;/b&gt;&amp;nbsp;[modèle] Gestion d&#39;une soufflerie&lt;/p&gt;" style="html=1;strokeWidth=1;shape=mxgraph.sysml.package;html=1;overflow=fill;whiteSpace=wrap;fillColor=none;gradientColor=none;fontSize=12;align=center;labelX=327.64;" parent="1" vertex="1">
          <mxGeometry x="160" y="340" width="1740" height="680" as="geometry" />
        </mxCell>
        <mxCell id="1672d66443f91eb5-21" style="edgeStyle=none;rounded=0;html=1;dashed=1;endArrow=none;endFill=0;jettySize=auto;orthogonalLoop=1;" parent="1" source="1672d66443f91eb5-6" edge="1">
          <mxGeometry relative="1" as="geometry">
            <mxPoint x="1066.5833333333335" y="655" as="targetPoint" />
          </mxGeometry>
        </mxCell>
        <mxCell id="1672d66443f91eb5-16" style="edgeStyle=orthogonalEdgeStyle;rounded=0;html=1;endArrow=circlePlus;endFill=0;jettySize=auto;orthogonalLoop=1;entryX=0.25;entryY=1;" parent="1" target="1672d66443f91eb5-5" edge="1">
          <mxGeometry relative="1" as="geometry">
            <Array as="points">
              <mxPoint x="627" y="635" />
              <mxPoint x="677" y="635" />
            </Array>
            <mxPoint x="627" y="655" as="sourcePoint" />
          </mxGeometry>
        </mxCell>
        <mxCell id="1672d66443f91eb5-17" style="edgeStyle=orthogonalEdgeStyle;rounded=0;html=1;endArrow=circlePlus;endFill=0;jettySize=auto;orthogonalLoop=1;entryX=0.5;entryY=1;" parent="1" source="1672d66443f91eb5-8" edge="1">
          <mxGeometry relative="1" as="geometry">
            <Array as="points">
              <mxPoint x="817" y="635" />
              <mxPoint x="717" y="635" />
            </Array>
            <mxPoint x="717" y="605" as="targetPoint" />
          </mxGeometry>
        </mxCell>
        <mxCell id="1672d66443f91eb5-18" style="edgeStyle=orthogonalEdgeStyle;rounded=0;html=1;endArrow=circlePlus;endFill=0;jettySize=auto;orthogonalLoop=1;entryX=0.75;entryY=1;" parent="1" source="1672d66443f91eb5-9" edge="1">
          <mxGeometry relative="1" as="geometry">
            <Array as="points">
              <mxPoint x="1017" y="625" />
              <mxPoint x="757" y="625" />
            </Array>
            <mxPoint x="757" y="605" as="targetPoint" />
          </mxGeometry>
        </mxCell>
        <mxCell id="1672d66443f91eb5-23" value="Title" style="text;strokeColor=none;fillColor=none;html=1;fontSize=24;fontStyle=1;verticalAlign=middle;align=center;" parent="1" vertex="1">
          <mxGeometry x="120" y="40" width="1510" height="40" as="geometry" />
        </mxCell>
        <mxCell id="MLXDjhbPjjfRIESLKYg0-1" value="&lt;p style=&quot;margin: 0px ; margin-top: 4px ; text-align: center&quot;&gt;&amp;lt;&amp;lt;requirement&amp;gt;&amp;gt;&lt;br&gt;&lt;b&gt;Gérer&amp;nbsp;les mesures&lt;/b&gt;&lt;/p&gt;&lt;hr&gt;&lt;p style=&quot;margin: 0px ; margin-left: 8px ; text-align: left&quot;&gt;Id = &quot;1.1.1&quot;&lt;/p&gt;&lt;p style=&quot;margin: 0px ; margin-left: 8px ; text-align: left&quot;&gt;text=&quot;L&#39;IHM doit pouvoir manipuler des mesures capturées&quot;&lt;/p&gt;" style="shape=rect;html=1;overflow=fill;whiteSpace=wrap;" vertex="1" parent="1">
          <mxGeometry x="405" y="640" width="290" height="95" as="geometry" />
        </mxCell>
        <mxCell id="MLXDjhbPjjfRIESLKYg0-2" value="&lt;p style=&quot;margin: 0px ; margin-top: 4px ; text-align: center&quot;&gt;&amp;lt;&amp;lt;requirement&amp;gt;&amp;gt;&lt;br&gt;&lt;b&gt;Afficher&lt;/b&gt;&lt;/p&gt;&lt;hr&gt;&lt;p style=&quot;margin: 0px ; margin-left: 8px ; text-align: left&quot;&gt;Id = &quot;1.1.1.1&quot;&lt;/p&gt;&lt;p style=&quot;margin: 0px ; margin-left: 8px ; text-align: left&quot;&gt;text=&quot;Les mesures sont affichées sur l&#39;interface utilisateur&quot;&lt;/p&gt;" style="shape=rect;html=1;overflow=fill;whiteSpace=wrap;" vertex="1" parent="1">
          <mxGeometry x="185" y="772.5" width="210" height="100" as="geometry" />
        </mxCell>
        <mxCell id="MLXDjhbPjjfRIESLKYg0-3" value="" style="edgeStyle=none;html=1;startArrow=sysMLPackCont;startSize=12;endArrow=none;rounded=0;exitX=0;exitY=0.5;exitDx=0;exitDy=0;entryX=0.5;entryY=0;entryDx=0;entryDy=0;" edge="1" parent="1" source="MLXDjhbPjjfRIESLKYg0-1" target="MLXDjhbPjjfRIESLKYg0-2">
          <mxGeometry width="160" relative="1" as="geometry">
            <mxPoint x="505" y="872.5" as="sourcePoint" />
            <mxPoint x="665" y="872.5" as="targetPoint" />
            <Array as="points">
              <mxPoint x="290" y="687.5" />
            </Array>
          </mxGeometry>
        </mxCell>
        <mxCell id="MLXDjhbPjjfRIESLKYg0-4" value="&lt;p style=&quot;margin: 0px ; margin-top: 4px ; text-align: center&quot;&gt;&amp;lt;&amp;lt;requirement&amp;gt;&amp;gt;&lt;br&gt;&lt;b&gt;Stocker&lt;/b&gt;&lt;/p&gt;&lt;hr&gt;&lt;p style=&quot;margin: 0px ; margin-left: 8px ; text-align: left&quot;&gt;Id = &quot;1.1.1.2&quot;&lt;/p&gt;&lt;p style=&quot;margin: 0px ; margin-left: 8px ; text-align: left&quot;&gt;text=&quot;Les mesures doivent être stocker dans une BDD&quot;&lt;/p&gt;" style="shape=rect;html=1;overflow=fill;whiteSpace=wrap;" vertex="1" parent="1">
          <mxGeometry x="445" y="772.5" width="210" height="100" as="geometry" />
        </mxCell>
        <mxCell id="MLXDjhbPjjfRIESLKYg0-5" value="" style="edgeStyle=none;html=1;startArrow=sysMLPackCont;startSize=12;endArrow=none;rounded=0;exitX=0.5;exitY=1;exitDx=0;exitDy=0;entryX=0.5;entryY=0;entryDx=0;entryDy=0;" edge="1" parent="1" source="MLXDjhbPjjfRIESLKYg0-1" target="MLXDjhbPjjfRIESLKYg0-4">
          <mxGeometry width="160" relative="1" as="geometry">
            <mxPoint x="535" y="812.5" as="sourcePoint" />
            <mxPoint x="695" y="812.5" as="targetPoint" />
          </mxGeometry>
        </mxCell>
        <mxCell id="MLXDjhbPjjfRIESLKYg0-9" value="&lt;p style=&quot;margin: 0px ; margin-top: 4px ; text-align: center&quot;&gt;&amp;lt;&amp;lt;requirement&amp;gt;&amp;gt;&lt;br&gt;&lt;b&gt;Gérer une soufflerie&lt;/b&gt;&lt;/p&gt;&lt;hr&gt;&lt;p style=&quot;margin: 0px ; margin-left: 8px ; text-align: left&quot;&gt;Id = &quot;1&quot;&lt;/p&gt;&lt;p style=&quot;margin: 0px ; margin-left: 8px ; text-align: left&quot;&gt;text=&quot;L&#39;IHM doit pouvoir manipuler des mesures capturées&quot;&lt;/p&gt;" style="shape=rect;html=1;overflow=fill;whiteSpace=wrap;" vertex="1" parent="1">
          <mxGeometry x="750" y="365" width="290" height="95" as="geometry" />
        </mxCell>
        <mxCell id="MLXDjhbPjjfRIESLKYg0-10" value="&lt;p style=&quot;margin: 0px ; margin-top: 4px ; text-align: center&quot;&gt;&amp;lt;&amp;lt;requirement&amp;gt;&amp;gt;&lt;br&gt;&lt;b&gt;Logiciel&lt;/b&gt;&lt;/p&gt;&lt;hr&gt;&lt;p style=&quot;margin: 0px ; margin-left: 8px ; text-align: left&quot;&gt;Id = &quot;1.1&quot;&lt;/p&gt;&lt;p style=&quot;margin: 0px ; margin-left: 8px ; text-align: left&quot;&gt;text=&quot;Le logiciel doit être développé en C# et disposé sur un RaspBerry PI 4&quot;&lt;/p&gt;" style="shape=rect;html=1;overflow=fill;whiteSpace=wrap;" vertex="1" parent="1">
          <mxGeometry x="550" y="510" width="290" height="95" as="geometry" />
        </mxCell>
        <mxCell id="MLXDjhbPjjfRIESLKYg0-12" value="" style="edgeStyle=none;html=1;startArrow=sysMLPackCont;startSize=12;endArrow=none;rounded=0;exitX=0.25;exitY=1;exitDx=0;exitDy=0;entryX=0.75;entryY=0;entryDx=0;entryDy=0;" edge="1" parent="1" source="MLXDjhbPjjfRIESLKYg0-10" target="MLXDjhbPjjfRIESLKYg0-1">
          <mxGeometry width="160" relative="1" as="geometry">
            <mxPoint x="620" y="610" as="sourcePoint" />
            <mxPoint x="780" y="610" as="targetPoint" />
          </mxGeometry>
        </mxCell>
        <mxCell id="MLXDjhbPjjfRIESLKYg0-16" value="&lt;b&gt;SatisfiedBy&lt;/b&gt;&lt;div&gt;&amp;lt;&amp;lt;block&amp;gt;&amp;gt; RaspBerry PI 4&lt;/div&gt;" style="shape=note;size=15;align=left;spacingLeft=10;html=1;whiteSpace=wrap;strokeWidth=1;fontSize=12;" vertex="1" parent="1">
          <mxGeometry x="277" y="519" width="210" height="60" as="geometry" />
        </mxCell>
        <mxCell id="MLXDjhbPjjfRIESLKYg0-18" value="" style="edgeStyle=none;html=1;endSize=12;endArrow=block;endFill=0;dashed=1;rounded=0;exitX=0;exitY=0;exitDx=210;exitDy=37.5;exitPerimeter=0;entryX=0;entryY=0.5;entryDx=0;entryDy=0;" edge="1" parent="1" source="MLXDjhbPjjfRIESLKYg0-16" target="MLXDjhbPjjfRIESLKYg0-10">
          <mxGeometry width="160" relative="1" as="geometry">
            <mxPoint x="490" y="650" as="sourcePoint" />
            <mxPoint x="650" y="650" as="targetPoint" />
          </mxGeometry>
        </mxCell>
        <mxCell id="MLXDjhbPjjfRIESLKYg0-20" value="&lt;b&gt;SatisfiedBy&lt;/b&gt;&lt;div&gt;&amp;lt;&amp;lt;block&amp;gt;&amp;gt; Capturer&lt;/div&gt;&lt;div&gt;Récupère les mesures d&#39;un ESP32&lt;/div&gt;" style="shape=note;size=15;align=left;spacingLeft=10;html=1;whiteSpace=wrap;strokeWidth=1;fontSize=12;" vertex="1" parent="1">
          <mxGeometry x="310" y="930" width="210" height="60" as="geometry" />
        </mxCell>
        <mxCell id="MLXDjhbPjjfRIESLKYg0-21" value="" style="edgeStyle=none;html=1;endSize=12;endArrow=block;endFill=0;dashed=1;rounded=0;exitX=0;exitY=0;exitDx=97.5;exitDy=0;exitPerimeter=0;entryX=0.75;entryY=1;entryDx=0;entryDy=0;" edge="1" parent="1" source="MLXDjhbPjjfRIESLKYg0-20" target="MLXDjhbPjjfRIESLKYg0-2">
          <mxGeometry width="160" relative="1" as="geometry">
            <mxPoint x="245" y="1091" as="sourcePoint" />
            <mxPoint x="315" y="990" as="targetPoint" />
          </mxGeometry>
        </mxCell>
        <mxCell id="MLXDjhbPjjfRIESLKYg0-35" value="&lt;p style=&quot;margin: 0px ; margin-top: 4px ; text-align: center&quot;&gt;&amp;lt;&amp;lt;requirement&amp;gt;&amp;gt;&lt;br&gt;&lt;b&gt;Gérer&amp;nbsp;la caméra&lt;/b&gt;&lt;/p&gt;&lt;hr&gt;&lt;p style=&quot;margin: 0px ; margin-left: 8px ; text-align: left&quot;&gt;Id = &quot;1.1.2&quot;&lt;/p&gt;&lt;p style=&quot;margin: 0px ; margin-left: 8px ; text-align: left&quot;&gt;text=&quot;L&#39;IHM doit pouvoir manipuler le flux vidéo provenant d&#39;une caméra&quot;&lt;/p&gt;" style="shape=rect;html=1;overflow=fill;whiteSpace=wrap;" vertex="1" parent="1">
          <mxGeometry x="713" y="640" width="220" height="95" as="geometry" />
        </mxCell>
        <mxCell id="MLXDjhbPjjfRIESLKYg0-38" value="&lt;p style=&quot;margin: 0px ; margin-top: 4px ; text-align: center&quot;&gt;&amp;lt;&amp;lt;requirement&amp;gt;&amp;gt;&lt;br&gt;&lt;b&gt;Afficher&lt;/b&gt;&lt;/p&gt;&lt;hr&gt;&lt;p style=&quot;margin: 0px ; margin-left: 8px ; text-align: left&quot;&gt;Id = &quot;1.1.2.1&quot;&lt;/p&gt;&lt;p style=&quot;margin: 0px ; margin-left: 8px ; text-align: left&quot;&gt;text=&quot;Le flux vidéo doit être affiché sur l&#39;interface utilisateur&quot;&lt;/p&gt;" style="shape=rect;html=1;overflow=fill;whiteSpace=wrap;" vertex="1" parent="1">
          <mxGeometry x="718" y="772.5" width="210" height="107.5" as="geometry" />
        </mxCell>
        <mxCell id="MLXDjhbPjjfRIESLKYg0-39" value="" style="edgeStyle=none;html=1;startArrow=sysMLPackCont;startSize=12;endArrow=none;rounded=0;exitX=0.5;exitY=1;exitDx=0;exitDy=0;entryX=0.5;entryY=0;entryDx=0;entryDy=0;" edge="1" parent="1" source="MLXDjhbPjjfRIESLKYg0-35" target="MLXDjhbPjjfRIESLKYg0-38">
          <mxGeometry width="160" relative="1" as="geometry">
            <mxPoint x="840" y="812.5" as="sourcePoint" />
            <mxPoint x="1000" y="812.5" as="targetPoint" />
          </mxGeometry>
        </mxCell>
        <mxCell id="MLXDjhbPjjfRIESLKYg0-40" value="" style="edgeStyle=none;html=1;startArrow=sysMLPackCont;startSize=12;endArrow=none;rounded=0;exitX=0.75;exitY=1;exitDx=0;exitDy=0;entryX=0.25;entryY=0;entryDx=0;entryDy=0;" edge="1" parent="1" target="MLXDjhbPjjfRIESLKYg0-35" source="MLXDjhbPjjfRIESLKYg0-10">
          <mxGeometry width="160" relative="1" as="geometry">
            <mxPoint x="1198" y="605" as="sourcePoint" />
            <mxPoint x="1355" y="610" as="targetPoint" />
          </mxGeometry>
        </mxCell>
        <mxCell id="MLXDjhbPjjfRIESLKYg0-42" value="&lt;b&gt;SatisfiedBy&lt;/b&gt;&lt;div&gt;&amp;lt;&amp;lt;block&amp;gt;&amp;gt; Capturer&lt;/div&gt;&lt;div&gt;Récupère les images d&#39;une caméra ModuleV2&lt;/div&gt;" style="shape=note;size=15;align=left;spacingLeft=10;html=1;whiteSpace=wrap;strokeWidth=1;fontSize=12;" vertex="1" parent="1">
          <mxGeometry x="840" y="930" width="210" height="60" as="geometry" />
        </mxCell>
        <mxCell id="MLXDjhbPjjfRIESLKYg0-43" value="" style="edgeStyle=none;html=1;endSize=12;endArrow=block;endFill=0;dashed=1;rounded=0;entryX=0.75;entryY=1;entryDx=0;entryDy=0;exitX=0;exitY=0;exitDx=97.5;exitDy=0;exitPerimeter=0;" edge="1" parent="1" source="MLXDjhbPjjfRIESLKYg0-42" target="MLXDjhbPjjfRIESLKYg0-38">
          <mxGeometry width="160" relative="1" as="geometry">
            <mxPoint x="940" y="994" as="sourcePoint" />
            <mxPoint x="1040" y="1006" as="targetPoint" />
          </mxGeometry>
        </mxCell>
        <mxCell id="MLXDjhbPjjfRIESLKYg0-46" value="&lt;p style=&quot;margin: 0px ; margin-top: 4px ; text-align: center&quot;&gt;&amp;lt;&amp;lt;requirement&amp;gt;&amp;gt;&lt;br&gt;&lt;b&gt;Stocker&lt;/b&gt;&lt;/p&gt;&lt;hr&gt;&lt;p style=&quot;margin: 0px ; margin-left: 8px ; text-align: left&quot;&gt;Id = &quot;1.1.2.2&quot;&lt;/p&gt;&lt;p style=&quot;margin: 0px ; margin-left: 8px ; text-align: left&quot;&gt;text=&quot;Les images/vidéos capturés doivent pouvoir être stocker dans un dossier ou une BDD&quot;&lt;/p&gt;" style="shape=rect;html=1;overflow=fill;whiteSpace=wrap;" vertex="1" parent="1">
          <mxGeometry x="961" y="772.5" width="210" height="107.5" as="geometry" />
        </mxCell>
        <mxCell id="MLXDjhbPjjfRIESLKYg0-47" value="" style="edgeStyle=none;html=1;startArrow=sysMLPackCont;startSize=12;endArrow=none;rounded=0;exitX=1;exitY=0.5;exitDx=0;exitDy=0;entryX=0.25;entryY=0;entryDx=0;entryDy=0;" edge="1" parent="1" source="MLXDjhbPjjfRIESLKYg0-35" target="MLXDjhbPjjfRIESLKYg0-46">
          <mxGeometry width="160" relative="1" as="geometry">
            <mxPoint x="833" y="745" as="sourcePoint" />
            <mxPoint x="833" y="783" as="targetPoint" />
            <Array as="points">
              <mxPoint x="1014" y="688" />
            </Array>
          </mxGeometry>
        </mxCell>
        <mxCell id="MLXDjhbPjjfRIESLKYg0-51" value="" style="edgeStyle=none;html=1;endSize=12;endArrow=block;endFill=0;dashed=1;rounded=0;exitX=0.5;exitY=0;exitDx=0;exitDy=0;exitPerimeter=0;entryX=0.25;entryY=1;entryDx=0;entryDy=0;" edge="1" parent="1" source="MLXDjhbPjjfRIESLKYg0-20" target="MLXDjhbPjjfRIESLKYg0-4">
          <mxGeometry width="160" relative="1" as="geometry">
            <mxPoint x="417" y="962" as="sourcePoint" />
            <mxPoint x="353" y="883" as="targetPoint" />
          </mxGeometry>
        </mxCell>
        <mxCell id="MLXDjhbPjjfRIESLKYg0-54" value="" style="edgeStyle=none;html=1;endSize=12;endArrow=block;endFill=0;dashed=1;rounded=0;entryX=0.25;entryY=1;entryDx=0;entryDy=0;exitX=0.5;exitY=0;exitDx=0;exitDy=0;exitPerimeter=0;" edge="1" parent="1" source="MLXDjhbPjjfRIESLKYg0-42" target="MLXDjhbPjjfRIESLKYg0-46">
          <mxGeometry width="160" relative="1" as="geometry">
            <mxPoint x="958" y="986" as="sourcePoint" />
            <mxPoint x="886" y="890" as="targetPoint" />
          </mxGeometry>
        </mxCell>
        <mxCell id="MLXDjhbPjjfRIESLKYg0-76" value="&lt;p style=&quot;margin: 0px ; margin-top: 4px ; text-align: center&quot;&gt;&amp;lt;&amp;lt;requirement&amp;gt;&amp;gt;&lt;br&gt;&lt;b&gt;Site Web&lt;/b&gt;&lt;/p&gt;&lt;hr&gt;&lt;p style=&quot;margin: 0px ; margin-left: 8px ; text-align: left&quot;&gt;Id = &quot;1.2&quot;&lt;/p&gt;&lt;p style=&quot;margin: 0px ; margin-left: 8px ; text-align: left&quot;&gt;text=&quot;Le site doit pouvoir visualiser les données provenant de la BDD&quot;&lt;/p&gt;" style="shape=rect;html=1;overflow=fill;whiteSpace=wrap;" vertex="1" parent="1">
          <mxGeometry x="1204" y="366.25" width="290" height="95" as="geometry" />
        </mxCell>
        <mxCell id="MLXDjhbPjjfRIESLKYg0-77" value="&lt;p style=&quot;margin: 0px ; margin-top: 4px ; text-align: center&quot;&gt;&amp;lt;&amp;lt;requirement&amp;gt;&amp;gt;&lt;br&gt;&lt;b&gt;Afficher&lt;/b&gt;&lt;/p&gt;&lt;hr&gt;&lt;p style=&quot;margin: 0px ; margin-left: 8px ; text-align: left&quot;&gt;Id = &quot;1.2.1&quot;&lt;/p&gt;&lt;p style=&quot;margin: 0px ; margin-left: 8px ; text-align: left&quot;&gt;text=&quot;L&#39;utilisateur doit pouvoir voir toutes les données depuis le site&quot;&lt;/p&gt;" style="shape=rect;html=1;overflow=fill;whiteSpace=wrap;" vertex="1" parent="1">
          <mxGeometry x="1535.5" y="360" width="210" height="107.5" as="geometry" />
        </mxCell>
        <mxCell id="MLXDjhbPjjfRIESLKYg0-79" value="&lt;b&gt;SatisfiedBy&lt;/b&gt;&lt;div&gt;&amp;lt;&amp;lt;block&amp;gt;&amp;gt; Capturer&lt;/div&gt;&lt;div&gt;Récupère les images d&#39;une caméra ModuleV2&lt;/div&gt;" style="shape=note;size=15;align=left;spacingLeft=10;html=1;whiteSpace=wrap;strokeWidth=1;fontSize=12;" vertex="1" parent="1">
          <mxGeometry x="1543.5" y="531.25" width="210" height="60" as="geometry" />
        </mxCell>
        <mxCell id="MLXDjhbPjjfRIESLKYg0-80" value="" style="edgeStyle=none;html=1;endSize=12;endArrow=block;endFill=0;dashed=1;rounded=0;entryX=0.5;entryY=1;entryDx=0;entryDy=0;exitX=0;exitY=0;exitDx=97.5;exitDy=0;exitPerimeter=0;" edge="1" parent="1" source="MLXDjhbPjjfRIESLKYg0-79" target="MLXDjhbPjjfRIESLKYg0-77">
          <mxGeometry width="160" relative="1" as="geometry">
            <mxPoint x="1198.5" y="796.25" as="sourcePoint" />
            <mxPoint x="1267.5" y="746.25" as="targetPoint" />
          </mxGeometry>
        </mxCell>
        <mxCell id="MLXDjhbPjjfRIESLKYg0-83" value="" style="edgeStyle=none;html=1;startArrow=sysMLPackCont;startSize=12;endArrow=none;rounded=0;exitX=1;exitY=0.5;exitDx=0;exitDy=0;entryX=0;entryY=0.5;entryDx=0;entryDy=0;" edge="1" parent="1" source="MLXDjhbPjjfRIESLKYg0-76" target="MLXDjhbPjjfRIESLKYg0-77">
          <mxGeometry width="160" relative="1" as="geometry">
            <mxPoint x="1358.5" y="586.25" as="sourcePoint" />
            <mxPoint x="1518.5" y="586.25" as="targetPoint" />
          </mxGeometry>
        </mxCell>
        <mxCell id="MLXDjhbPjjfRIESLKYg0-84" value="" style="edgeStyle=none;html=1;startArrow=sysMLPackCont;startSize=12;endArrow=none;rounded=0;exitX=1;exitY=0.5;exitDx=0;exitDy=0;entryX=0;entryY=0.5;entryDx=0;entryDy=0;" edge="1" parent="1" source="MLXDjhbPjjfRIESLKYg0-9" target="MLXDjhbPjjfRIESLKYg0-76">
          <mxGeometry width="160" relative="1" as="geometry">
            <mxPoint x="880" y="550" as="sourcePoint" />
            <mxPoint x="1040" y="550" as="targetPoint" />
          </mxGeometry>
        </mxCell>
        <mxCell id="MLXDjhbPjjfRIESLKYg0-85" value="" style="edgeStyle=none;html=1;startArrow=sysMLPackCont;startSize=12;endArrow=none;rounded=0;exitX=0.25;exitY=1;exitDx=0;exitDy=0;entryX=0.75;entryY=0;entryDx=0;entryDy=0;" edge="1" parent="1" source="MLXDjhbPjjfRIESLKYg0-9" target="MLXDjhbPjjfRIESLKYg0-10">
          <mxGeometry width="160" relative="1" as="geometry">
            <mxPoint x="640" y="480" as="sourcePoint" />
            <mxPoint x="800" y="480" as="targetPoint" />
            <Array as="points">
              <mxPoint x="823" y="490" />
              <mxPoint x="768" y="490" />
            </Array>
          </mxGeometry>
        </mxCell>
        <mxCell id="MLXDjhbPjjfRIESLKYg0-88" value="&lt;p style=&quot;margin: 0px ; margin-top: 4px ; text-align: center&quot;&gt;&amp;lt;&amp;lt;requirement&amp;gt;&amp;gt;&lt;br&gt;&lt;b&gt;Gérer&amp;nbsp;le régulateur&lt;/b&gt;&lt;/p&gt;&lt;hr&gt;&lt;p style=&quot;margin: 0px ; margin-left: 8px ; text-align: left&quot;&gt;Id = &quot;1.1.3&quot;&lt;/p&gt;&lt;p style=&quot;margin: 0px ; margin-left: 8px ; text-align: left&quot;&gt;text=&quot;L&#39;IHM doit pouvoir afficher et modifier la flux vitesse en temps réel&quot;&lt;/p&gt;" style="shape=rect;html=1;overflow=fill;whiteSpace=wrap;" vertex="1" parent="1">
          <mxGeometry x="880" y="510" width="220" height="95" as="geometry" />
        </mxCell>
        <mxCell id="MLXDjhbPjjfRIESLKYg0-89" value="&lt;p style=&quot;margin: 0px ; margin-top: 4px ; text-align: center&quot;&gt;&amp;lt;&amp;lt;requirement&amp;gt;&amp;gt;&lt;br&gt;&lt;b&gt;Afficher&lt;/b&gt;&lt;/p&gt;&lt;hr&gt;&lt;p style=&quot;margin: 0px ; margin-left: 8px ; text-align: left&quot;&gt;Id = &quot;1.1.3.1&quot;&lt;/p&gt;&lt;p style=&quot;margin: 0px ; margin-left: 8px ; text-align: left&quot;&gt;text=&quot;La vitesse doit être afficher en directe sur l&#39;interface utilisateur&quot;&lt;/p&gt;" style="shape=rect;html=1;overflow=fill;whiteSpace=wrap;" vertex="1" parent="1">
          <mxGeometry x="1028" y="621.25" width="210" height="98.75" as="geometry" />
        </mxCell>
        <mxCell id="MLXDjhbPjjfRIESLKYg0-90" value="" style="edgeStyle=none;html=1;startArrow=sysMLPackCont;startSize=12;endArrow=none;rounded=0;exitX=1;exitY=0.75;exitDx=0;exitDy=0;entryX=0.5;entryY=0;entryDx=0;entryDy=0;" edge="1" parent="1" source="MLXDjhbPjjfRIESLKYg0-88" target="MLXDjhbPjjfRIESLKYg0-89">
          <mxGeometry width="160" relative="1" as="geometry">
            <mxPoint x="1150" y="661.25" as="sourcePoint" />
            <mxPoint x="1310" y="661.25" as="targetPoint" />
            <Array as="points">
              <mxPoint x="1133" y="581.25" />
            </Array>
          </mxGeometry>
        </mxCell>
        <mxCell id="MLXDjhbPjjfRIESLKYg0-91" value="&lt;b&gt;SatisfiedBy&lt;/b&gt;&lt;div&gt;&amp;lt;&amp;lt;block&amp;gt;&amp;gt; Capturer&lt;/div&gt;&lt;div&gt;Récupère les images d&#39;une caméra ModuleV2&lt;/div&gt;" style="shape=note;size=15;align=left;spacingLeft=10;html=1;whiteSpace=wrap;strokeWidth=1;fontSize=12;" vertex="1" parent="1">
          <mxGeometry x="1325.5" y="605" width="210" height="60" as="geometry" />
        </mxCell>
        <mxCell id="MLXDjhbPjjfRIESLKYg0-92" value="" style="edgeStyle=none;html=1;endSize=12;endArrow=block;endFill=0;dashed=1;rounded=0;entryX=1;entryY=0.25;entryDx=0;entryDy=0;exitX=0;exitY=0.5;exitDx=0;exitDy=0;exitPerimeter=0;" edge="1" parent="1" source="MLXDjhbPjjfRIESLKYg0-91" target="MLXDjhbPjjfRIESLKYg0-89">
          <mxGeometry width="160" relative="1" as="geometry">
            <mxPoint x="1250" y="846.5" as="sourcePoint" />
            <mxPoint x="1350" y="858.5" as="targetPoint" />
          </mxGeometry>
        </mxCell>
        <mxCell id="MLXDjhbPjjfRIESLKYg0-93" value="&lt;p style=&quot;margin: 0px ; margin-top: 4px ; text-align: center&quot;&gt;&amp;lt;&amp;lt;requirement&amp;gt;&amp;gt;&lt;br&gt;&lt;b&gt;Modifier&lt;/b&gt;&lt;/p&gt;&lt;hr&gt;&lt;p style=&quot;margin: 0px ; margin-left: 8px ; text-align: left&quot;&gt;Id = &quot;1.1.3.2&quot;&lt;/p&gt;&lt;p style=&quot;margin: 0px ; margin-left: 8px ; text-align: left&quot;&gt;text=&quot;La vitesse doit pouvoir être modifiable&quot;&lt;/p&gt;" style="shape=rect;html=1;overflow=fill;whiteSpace=wrap;" vertex="1" parent="1">
          <mxGeometry x="1171" y="492.5" width="210" height="98.75" as="geometry" />
        </mxCell>
        <mxCell id="MLXDjhbPjjfRIESLKYg0-95" value="" style="edgeStyle=none;html=1;endSize=12;endArrow=block;endFill=0;dashed=1;rounded=0;entryX=0.5;entryY=1;entryDx=0;entryDy=0;exitX=0;exitY=0.5;exitDx=0;exitDy=0;exitPerimeter=0;" edge="1" parent="1" source="MLXDjhbPjjfRIESLKYg0-91" target="MLXDjhbPjjfRIESLKYg0-93">
          <mxGeometry width="160" relative="1" as="geometry">
            <mxPoint x="1268" y="838.5" as="sourcePoint" />
            <mxPoint x="1196" y="742.5" as="targetPoint" />
          </mxGeometry>
        </mxCell>
        <mxCell id="MLXDjhbPjjfRIESLKYg0-98" value="" style="edgeStyle=none;html=1;startArrow=sysMLPackCont;startSize=12;endArrow=none;rounded=0;entryX=0;entryY=0.5;entryDx=0;entryDy=0;" edge="1" parent="1" source="MLXDjhbPjjfRIESLKYg0-10" target="MLXDjhbPjjfRIESLKYg0-88">
          <mxGeometry width="160" relative="1" as="geometry">
            <mxPoint x="1210" y="550" as="sourcePoint" />
            <mxPoint x="1370" y="550" as="targetPoint" />
          </mxGeometry>
        </mxCell>
        <mxCell id="MLXDjhbPjjfRIESLKYg0-100" value="" style="edgeStyle=none;html=1;startArrow=sysMLPackCont;startSize=12;endArrow=none;rounded=0;exitX=1;exitY=0.25;exitDx=0;exitDy=0;entryX=0;entryY=0.5;entryDx=0;entryDy=0;" edge="1" parent="1" source="MLXDjhbPjjfRIESLKYg0-88" target="MLXDjhbPjjfRIESLKYg0-93">
          <mxGeometry width="160" relative="1" as="geometry">
            <mxPoint x="1070" y="550" as="sourcePoint" />
            <mxPoint x="1230" y="550" as="targetPoint" />
            <Array as="points">
              <mxPoint x="1120" y="534" />
              <mxPoint x="1120" y="542" />
            </Array>
          </mxGeometry>
        </mxCell>
      </root>
    </mxGraphModel>
  </diagram>
</mxfile>
